<svg xmlns="http://www.w3.org/2000/svg" width="100px" height="100px" viewBox="0 0 100 100"><path fill="currentColor" d="M49.4,22.5c-2.1-0.2-4.1,0-6.1,0.4l-3.7,0.9l2.8,2.5c1.1,1,1.6,2.3,1.4,3.8c-0.2,1.8-1.7,3.3-3.5,3.6
c-1.9,0.3-3.7-0.6-4.5-2.3L34.2,28l-1.9,3.3c-1.6,2.8-2.4,6-2.3,9.3c0.3,9.4,8.2,17.1,17.7,17.1h0.1c9.5-0.1,17.1-7.5,17.5-17
C65.6,31.4,58.7,23.4,49.4,22.5z M59.9,40.5c-0.3,6.5-5.6,11.7-12.1,11.8h-0.1c-6.5,0-12-5.3-12.2-11.8c0-1.3,0.1-2.6,0.5-3.9
c1.6,1.2,3.7,1.8,5.8,1.4c3.2-0.5,5.8-3.1,6.2-6.3c0.2-1.3,0-2.6-0.5-3.8c0.5,0,1,0,1.5,0.1C55.2,28.5,60.1,34.2,59.9,40.5z"></path><path fill="currentColor" d="M95.9,46.3c-0.1-0.3-0.3-0.5-0.4-0.8c-0.1-0.1-0.5-0.9-0.5-0.9c-0.1-0.1-0.2-0.3-0.3-0.4l-0.8-1.1l-1.2-1.4l-1.3-1.2
c-0.5-0.4-1.2-0.9-1.8-1.4c-2.2-1.5-4.8-2.9-7.9-4c-2.8-1-5.6-1.7-8.4-2.1H73c-2.9-11-13-19.3-25-19.3c-12.1,0-22.4,8.4-25.2,19.7
l-0.5,0.1c-3,0.7-6.8,1.8-10.6,3.7c-1.9,1-3.6,2.1-5,3.5c-0.8,0.9-1.5,1.7-2.1,2.6c-0.7,1.2-1.1,2.1-1.5,3c-0.4,1.2-0.7,2.3-0.8,3.3
c-0.1,0.5-0.1,0.9-0.1,1.3v0.5v0.4c0,0.4,0,0.8,0.1,1.3c0.2,2.2,0.9,4.5,2,6.6c0.6,1,1.2,2,1.9,2.8c0.1,0.1,0.2,0.2,0.3,0.4
c0.2,0.3,0.5,0.6,0.7,0.8l1,1C8.5,65,8.8,65.2,9,65.4C9.3,65.5,9.9,66,9.9,66c0.3,0.2,0.5,0.4,0.8,0.6l1.8,1.3l0.6,0.4
c5.9,3.7,12.8,6.1,21.2,7.6c3,0.5,6.1,0.8,9.1,0.9c0.6,0,1.3,0,1.9,0c0.3,0,0.6,0,1,0c0.6,0,1.2,0,1.8,0c0.9,0,1.9-0.1,2.7-0.1
c0.5,0,1-0.1,1.4-0.1l-3.9,4.7l7.1-0.5l5.4-6.5l-6.1-5.8L47.6,69l4.2,4c-2.2-0.1-4.4-0.3-6.4-0.5c-4.3-0.5-7.5-1-10.4-1.7
c-3.5-0.8-6.9-1.8-10.1-2.9c-3.3-1.2-6.5-2.7-9.3-4.5l-0.5-0.3L13.5,62c-0.2-0.1-0.4-0.3-0.6-0.5c-0.1-0.1-0.2-0.2-0.3-0.3
s-0.3-0.2-0.4-0.3c-0.2-0.2-0.4-0.3-0.6-0.5l-1-0.9c-0.2-0.1-0.3-0.3-0.4-0.5c-0.1-0.1-0.2-0.3-0.3-0.4c-0.5-0.6-1-1.2-1.4-1.8
c-1.6-2.6-2-5.9-1.1-8.9c0.2-0.8,0.6-1.5,0.9-2.1c0.4-0.7,0.8-1.3,1.3-1.9c0.5-0.5,1-1.1,1.7-1.7c0.6-0.5,1.3-1,2.1-1.5
c2.7-1.8,5.8-3.2,8.8-4.6c-0.2,1.2-0.3,2.4-0.3,3.6c0,14.3,11.6,26,26,26c14.3,0,26-11.6,26-26c0-1.3-0.1-2.6-0.3-3.9
c2.2,0.9,4.4,1.9,6.5,3c2.5,1.3,4.6,2.7,6.5,4.2c2,1.7,3.5,3.6,4.3,5.4c0.4,0.9,0.6,1.9,0.7,3c0,1-0.2,2-0.5,3c-0.7,1.9-2,3.7-4,5.7
c-1.6,1.5-3.4,3-6.1,4.8c-4.4,2.9-9.3,5.3-14,7.7l-1.8,0.9l0.7,1.9l1.7-0.4c5.8-1.3,11.1-3.3,16-5.9c2.9-1.6,5.3-3.2,7.3-5
c2.7-2.4,4.5-5,5.5-7.8c0.6-1.7,0.9-3.4,0.8-5.1C97,49.4,96.6,47.8,95.9,46.3z M48,61.6c-12.1,0-21.9-9.8-21.9-21.9
S35.9,17.8,48,17.8s21.9,9.8,21.9,21.9S60.1,61.6,48,61.6z"></path></svg>