<svg xmlns="http://www.w3.org/2000/svg" viewBox="0 0 404 404"><path fill="currentColor" d="M323.4,166.8c0-0.1,0-0.2,0-0.3c0-0.3-0.1-0.6-0.1-0.9c0,0,0,0,0,0c-0.1-0.3-0.2-0.6-0.3-0.9
c0-0.1-0.1-0.1-0.1-0.2c-0.1-0.3-0.3-0.5-0.4-0.7c0,0,0-0.1-0.1-0.1c-0.2-0.2-0.4-0.5-0.6-0.7c-0.1-0.1-0.1-0.1-0.2-0.2
c-0.2-0.2-0.5-0.4-0.8-0.6c0,0,0,0,0,0c0,0,0,0,0,0L204.2,94.4c-1.7-1-3.8-1-5.6,0L83.3,162.2c0,0,0,0,0,0c0,0,0,0,0,0l0,0
c0,0,0,0,0,0c-0.3,0.2-0.5,0.4-0.8,0.6c-0.1,0.1-0.1,0.1-0.2,0.2c-0.2,0.2-0.4,0.4-0.6,0.7c0,0-0.1,0.1-0.1,0.1
c-0.2,0.2-0.3,0.5-0.4,0.7c0,0.1-0.1,0.1-0.1,0.2c-0.1,0.3-0.2,0.6-0.3,0.9c0,0,0,0.1,0,0.1c-0.1,0.3-0.1,0.6-0.1,0.8
c0,0.1,0,0.2,0,0.3c0,0.1,0,0.1,0,0.2v120.7c0,3,2.5,5.5,5.5,5.5h100.2l10.7,14.9c1,1.4,2.6,2.3,4.4,2.3c0,0,0.1,0,0.1,0
c1.7,0,3.3-0.8,4.4-2.2l11.5-15.1h100.6c3,0,5.5-2.5,5.5-5.5V167C323.4,166.9,323.4,166.8,323.4,166.8z M210.3,284.3l-8.7,11.3
l-8.1-11.2c-1-1.4-2.7-2.3-4.5-2.3H91.6V176.4l27,15.4l5.5,3.1l5.5,3.1l69.1,39.3c1.7,1,3.7,1,5.4,0l70.3-39.6l5.5-3.1l5.5-3.1
l27-15.2v105.7h-97.8C212.9,282.1,211.3,282.9,210.3,284.3z M274.4,185.2l-73,41.1l-71.9-40.9v-12.9h144.8V185.2z M201.4,105.5
l105.4,61.4L285.4,179v-12c0-3-2.5-5.5-5.5-5.5H124.1c-3,0-5.5,2.5-5.5,5.5v12.2L97,166.9L201.4,105.5z"></path><circle fill="currentColor" cx="201.4" cy="125.6" r="7.5"></circle></svg>